<svg xmlns="http://www.w3.org/2000/svg" width="256" height="256" viewBox="0 0 100 100"><rect width="100" height="100" rx="20" fill="#0065a4"></rect><path fill="#ffffff" d="M28.29 78.56L28.29 78.56Q23.16 78.56 18.79 76.63Q14.43 74.70 11.19 71.04Q7.96 67.39 6.11 62.05Q4.26 56.72 4.26 50L4.26 50Q4.26 43.36 6.11 38.07Q7.96 32.78 11.23 29.08Q14.51 25.39 19.05 23.41Q23.58 21.44 28.96 21.44L28.96 21.44Q33.91 21.44 37.74 23.46Q41.56 25.47 43.99 28.16L43.99 28.16L40.05 32.61Q37.86 30.34 35.17 28.96Q32.49 27.57 28.96 27.57L28.96 27.57Q25.01 27.57 21.78 29.13Q18.54 30.68 16.27 33.58Q14.01 36.48 12.75 40.59Q11.49 44.71 11.49 49.83L11.49 49.83Q11.49 55.04 12.75 59.20Q14.01 63.36 16.27 66.30Q18.54 69.24 21.78 70.83Q25.01 72.43 28.96 72.43L28.96 72.43Q32.74 72.43 35.72 70.83Q38.70 69.24 41.39 66.30L41.39 66.30L45.34 70.58Q42.06 74.36 37.95 76.46Q33.83 78.56 28.29 78.56ZM78.69 78.56L78.69 78.56Q73.56 78.56 69.19 76.63Q64.83 74.70 61.59 71.04Q58.36 67.39 56.51 62.05Q54.66 56.72 54.66 50L54.66 50Q54.66 43.36 56.51 38.07Q58.36 32.78 61.63 29.08Q64.91 25.39 69.45 23.41Q73.98 21.44 79.36 21.44L79.36 21.44Q84.31 21.44 88.14 23.46Q91.96 25.47 94.39 28.16L94.39 28.16L90.45 32.61Q88.26 30.34 85.57 28.96Q82.89 27.57 79.36 27.57L79.36 27.57Q75.41 27.57 72.18 29.13Q68.94 30.68 66.67 33.58Q64.41 36.48 63.15 40.59Q61.89 44.71 61.89 49.83L61.89 49.83Q61.89 55.04 63.15 59.20Q64.41 63.36 66.67 66.30Q68.94 69.24 72.18 70.83Q75.41 72.43 79.36 72.43L79.36 72.43Q83.14 72.43 86.12 70.83Q89.10 69.24 91.79 66.30L91.79 66.30L95.74 70.58Q92.46 74.36 88.35 76.46Q84.23 78.56 78.69 78.56Z"></path></svg>